<svg width="89" height="25" viewBox="0 0 89 25" fill="none" xmlns="http://www.w3.org/2000/svg">
<path d="M24.9966 0.989885C25.7267 0.880412 26.5668 0.811985 27.1865 1.26359C27.5722 1.55091 27.7099 2.07095 27.6823 2.53637C27.7099 3.30273 27.3518 4.1239 26.6633 4.52085C26.0572 4.84932 25.3273 4.87655 24.6523 4.80817C24.1978 4.75351 23.7434 4.50723 23.5092 4.09662C22.9857 2.90593 23.6331 1.22255 24.9966 0.989885ZM3.15254 1.8521C3.1938 1.44149 3.56571 1.07198 3.99264 1.08574C7.17433 1.08574 10.3421 1.09936 13.5099 1.08574C13.8543 1.05836 14.2262 1.20883 14.3914 1.50992C14.6254 1.92053 14.4189 2.37214 14.3914 2.79646C14.295 3.37116 14.3225 4.13767 13.6477 4.35656C11.3338 4.42499 9.01987 4.35656 6.70594 4.38394C6.4856 5.83457 6.27902 7.27158 6.05858 8.7086C6.05858 8.76336 6.07242 8.88665 6.07242 8.94121C7.76649 8.92759 9.46055 8.94121 11.1546 8.92759C11.6229 8.90021 12.1187 9.29726 12.0774 9.78981C12.0361 10.2962 11.9259 10.7889 11.8571 11.2953C11.8019 11.6374 11.5265 11.9522 11.1684 12.0206C9.28141 12.0617 7.36691 11.9796 5.48017 12.0617C5.17706 14.1282 4.81894 16.1947 4.50214 18.2614C4.46093 18.672 4.13027 19.0278 3.71709 19.0413C2.93211 19.0551 2.14695 19.0551 1.36196 19.0413C0.852371 19.0551 0.439142 18.4938 0.576817 18.0149C1.41722 12.6229 2.28488 7.2444 3.15254 1.8521ZM17.1459 1.11297C17.8622 1.05831 18.5921 1.09936 19.3084 1.08574C19.7491 1.05836 20.1899 1.40045 20.2311 1.8521C20.2311 2.20785 20.1347 2.56375 20.0934 2.91955C19.5149 6.58742 18.9227 10.2553 18.3441 13.9231C18.2615 14.5116 18.11 15.1411 18.2891 15.7433C18.4957 16.3454 19.4184 16.0854 19.6388 16.7149C19.7765 17.2213 19.625 17.755 19.5837 18.2751C19.5424 18.9594 18.7573 19.1099 18.2203 19.2606C17.0496 19.4795 15.6308 19.3153 14.7907 18.3572C14.1847 17.6593 14.1433 16.6738 14.2674 15.7981C14.9973 11.1449 15.7272 6.49171 16.4711 1.82472C16.5124 1.48254 16.7878 1.16778 17.1459 1.11297ZM44.4855 1.8521C44.5267 1.44149 44.8986 1.08574 45.3118 1.08574H47.4054C47.9287 1.07198 48.3558 1.63316 48.2318 2.12576C47.7497 5.16407 47.2539 8.20238 46.7719 11.2405C47.5018 11.1311 48.3283 10.9942 48.8379 10.4057C49.6917 9.44762 50.3943 8.33928 50.9175 7.17598C51.0965 6.72427 51.193 6.06738 51.7853 5.98524C52.5704 5.95786 53.3691 5.97153 54.1542 5.98524C54.6914 5.97153 55.0908 6.5737 54.9117 7.06635C54.7051 7.79187 54.3608 8.46237 54.0028 9.10564C53.2039 10.3921 52.3225 11.6649 51.1654 12.6776C51.675 14.1967 52.3225 15.6748 52.8871 17.1666C53.0523 17.6593 53.4519 18.234 53.0799 18.7132C52.6529 19.2879 51.8541 19.0004 51.2619 19.0688C50.642 19.0004 49.7468 19.3152 49.4025 18.6173C48.7551 17.1254 48.2181 15.5928 47.5568 14.1009C47.1712 14.1145 46.7718 14.1283 46.3861 14.0873C46.3587 14.142 46.3036 14.2514 46.2759 14.3063C46.0693 15.6748 45.849 17.0434 45.6286 18.4119C45.5459 18.7404 45.2842 19.0279 44.9262 19.0553C44.1963 19.0826 43.4525 19.0688 42.7087 19.0688C42.3919 19.0688 42.1027 18.8636 41.965 18.5899C41.8272 18.316 41.9098 18.0014 41.9513 17.7003C42.8051 12.4176 43.6453 7.13478 44.4855 1.8521ZM82.7608 3.34388C82.8572 2.96055 83.229 2.7006 83.6148 2.71422C84.1657 2.72798 84.7304 2.7006 85.295 2.72798C85.7496 2.7416 86.1077 3.19326 86.0525 3.6312C85.9699 4.41132 85.777 5.19145 85.722 5.97143C86.2591 5.97143 86.81 5.95781 87.3472 5.97143C87.8293 5.97143 88.2287 6.46418 88.146 6.9294C88.0771 7.35383 87.9807 7.76444 87.9118 8.18851C87.843 8.54446 87.5401 8.83183 87.1957 8.88655C86.5346 8.92759 85.8873 8.85916 85.2399 8.92759C84.9645 10.7614 84.6615 12.5953 84.3722 14.4294C84.3308 14.8536 84.3034 15.3325 84.5513 15.7021C84.9232 16.1538 85.5704 15.9894 86.0939 16.0443C86.5071 16.1674 86.7687 16.6191 86.6998 17.0298C86.6309 17.495 86.6172 17.9603 86.5071 18.4119C86.3418 18.9182 85.7495 19.0141 85.2949 19.1372C84.0416 19.4658 82.5955 19.4658 81.4799 18.7404C80.447 18.0423 80.2816 16.6875 80.3918 15.5378C80.681 13.3207 81.1356 11.1173 81.3835 8.8865C80.9979 8.90011 80.5295 8.95492 80.2404 8.61274C79.9098 8.27066 80.0751 7.76424 80.1301 7.33986C80.2129 6.88825 80.199 6.29979 80.6949 6.05342C81.0942 5.9028 81.5489 6.01242 81.9758 5.95761C82.2374 5.08188 82.4853 4.20604 82.7608 3.34388ZM74.979 7.778C75.8467 6.91578 76.8934 6.20414 78.0917 5.84839C78.615 5.61568 79.2899 6.05367 79.2762 6.62846C79.1798 7.38121 79.0007 8.12014 78.8768 8.85917C78.8216 9.22873 78.5049 9.54353 78.1329 9.58458C76.7832 9.81714 75.6125 10.6245 74.676 11.5826C74.4419 11.8701 74.0975 12.1438 74.0562 12.5406C73.767 14.4566 73.464 16.3727 73.161 18.2887C73.1197 18.6992 72.7615 19.0963 72.3346 19.0689H70.241C69.759 19.0963 69.3321 18.6173 69.3871 18.1382C69.9931 14.3472 70.5993 10.57 71.1914 6.77888C71.219 6.39575 71.4945 6.02624 71.8938 5.98514C72.4034 5.95776 72.913 5.97143 73.4364 5.97143C73.8496 5.97143 74.2352 6.34094 74.2352 6.76526C74.2352 7.35373 74.1802 7.95585 74.1664 8.55803C74.497 8.3529 74.7036 8.02438 74.979 7.778ZM23.4953 6.0399C24.2391 5.88943 25.0103 6.01262 25.7541 5.97147C26.1811 5.91681 26.6356 6.19047 26.7044 6.6148C26.7596 6.99793 26.6493 7.36749 26.6079 7.73706C26.0433 11.2544 25.4785 14.7716 24.9276 18.2888C24.8863 18.6859 24.5559 19.0827 24.1288 19.0689C23.3852 19.0689 22.6414 19.0827 21.8839 19.0554C21.4156 19.0005 21.0712 18.4669 21.1953 18.0151C21.7875 14.3611 22.3523 10.7206 22.9445 7.0664C22.972 6.66951 23.0822 6.20414 23.4953 6.0399ZM68.0649 6.21795C66.0127 5.83462 63.9193 5.56091 61.8394 5.76619C59.9801 5.99891 58.107 6.83379 56.9639 8.3529C55.38 10.351 54.8428 13.0335 55.2008 15.5244C55.3937 16.715 55.917 17.9194 56.895 18.6584C57.804 19.3564 59.0298 19.4521 60.1317 19.2742C61.6741 18.9731 62.9826 17.9879 64.057 16.8929C64.112 17.3582 64.0018 17.8236 64.0294 18.2752C64.057 18.6994 64.4426 19.0963 64.8695 19.0689H66.2745C66.6876 19.0689 67.032 18.6858 67.0596 18.2888C67.6518 14.5799 68.244 10.8847 68.8225 7.18959C68.905 6.72422 68.5333 6.27261 68.0649 6.21795ZM64.1948 12.6639C63.6438 13.6904 62.8724 14.621 62.0047 15.4147C61.509 15.8253 60.8753 16.2496 60.2006 16.1128C59.5394 15.976 59.2226 15.2917 59.0712 14.7031C58.7269 13.1704 59.0436 11.5006 59.9112 10.1731C60.2969 9.55715 60.9167 9.09193 61.6329 8.90026C62.6383 8.65388 63.6989 8.77707 64.6769 9.05078L64.7319 9.10564C64.608 10.2962 64.3738 11.4732 64.1948 12.6639ZM41.0285 10.6111C41.0146 9.24244 40.6428 7.80548 39.6787 6.77898C39.0177 6.05367 38.0259 5.68415 37.0619 5.69772C35.4641 5.64311 33.9629 6.42323 32.7922 7.46325C32.5304 7.66863 32.3514 7.96972 32.0623 8.1339C32.0623 7.68214 32.1035 7.23059 32.0897 6.76532C32.1035 6.34094 31.7041 5.97147 31.2909 5.97147H29.886C29.4454 5.97147 29.0872 6.35475 29.0596 6.77893C28.1919 12.2533 27.3106 17.7277 26.4428 23.2021C26.3189 23.7084 26.7597 24.2285 27.2831 24.2148C28.0543 24.2011 28.8394 24.2696 29.5969 24.1599C30.203 23.9957 30.1891 23.2977 30.2856 22.7914C30.5059 21.587 30.6575 20.3826 30.7952 19.1646C33.5085 19.6846 36.6625 19.3289 38.6871 17.2896C40.3398 15.4969 41.111 13.0197 41.0285 10.6111ZM37.172 11.9933C37.0895 13.2524 36.6349 14.5252 35.7535 15.4421C34.6104 16.5234 32.8748 16.3727 31.47 16.0033C31.4426 15.9622 31.4011 15.88 31.3874 15.8391C31.6077 14.6484 31.7179 13.444 31.9934 12.267C32.7647 11.008 33.7012 9.7351 35.0372 9.03721C35.533 8.8046 36.2079 8.85931 36.566 9.31097C37.172 10.0637 37.2271 11.0764 37.172 11.9933Z" fill="white" stroke="white" stroke-width="0.00363783"/>
</svg>
